<mxfile host="app.diagrams.net" modified="2024-02-15T12:06:11.828Z" agent="Mozilla/5.0 (Windows NT 10.0; Win64; x64) AppleWebKit/537.36 (KHTML, like Gecko) Chrome/121.0.0.0 Safari/537.36" etag="HEqe36rdRBhgo55CjNqP" version="22.1.21" type="device">
  <diagram name="Page-1" id="PqxSQIyhPKrTlwkgqnfy">
    <mxGraphModel dx="1434" dy="772" grid="1" gridSize="10" guides="1" tooltips="1" connect="1" arrows="1" fold="1" page="1" pageScale="1" pageWidth="850" pageHeight="1100" math="0" shadow="0">
      <root>
        <mxCell id="0" />
        <mxCell id="1" parent="0" />
        <mxCell id="Q45M1_1x2DSaUJfvl0xe-1" value="" style="rounded=0;whiteSpace=wrap;html=1;" vertex="1" parent="1">
          <mxGeometry x="40" y="60" width="230" height="510" as="geometry" />
        </mxCell>
        <mxCell id="Q45M1_1x2DSaUJfvl0xe-2" value="" style="rounded=0;whiteSpace=wrap;html=1;" vertex="1" parent="1">
          <mxGeometry x="300" y="60" width="260" height="510" as="geometry" />
        </mxCell>
        <mxCell id="Q45M1_1x2DSaUJfvl0xe-3" value="" style="rounded=0;whiteSpace=wrap;html=1;" vertex="1" parent="1">
          <mxGeometry x="610" y="60" width="220" height="510" as="geometry" />
        </mxCell>
        <mxCell id="Q45M1_1x2DSaUJfvl0xe-4" value="External" style="text;html=1;strokeColor=none;fillColor=none;align=center;verticalAlign=middle;whiteSpace=wrap;rounded=0;" vertex="1" parent="1">
          <mxGeometry x="690" y="30" width="60" height="30" as="geometry" />
        </mxCell>
        <mxCell id="Q45M1_1x2DSaUJfvl0xe-5" value="Server" style="text;html=1;strokeColor=none;fillColor=none;align=center;verticalAlign=middle;whiteSpace=wrap;rounded=0;" vertex="1" parent="1">
          <mxGeometry x="400" y="30" width="60" height="30" as="geometry" />
        </mxCell>
        <mxCell id="Q45M1_1x2DSaUJfvl0xe-6" value="Client" style="text;html=1;strokeColor=none;fillColor=none;align=center;verticalAlign=middle;whiteSpace=wrap;rounded=0;" vertex="1" parent="1">
          <mxGeometry x="125" y="30" width="60" height="30" as="geometry" />
        </mxCell>
        <mxCell id="Q45M1_1x2DSaUJfvl0xe-18" style="edgeStyle=orthogonalEdgeStyle;rounded=0;orthogonalLoop=1;jettySize=auto;html=1;" edge="1" parent="1" source="Q45M1_1x2DSaUJfvl0xe-7" target="Q45M1_1x2DSaUJfvl0xe-15">
          <mxGeometry relative="1" as="geometry">
            <Array as="points">
              <mxPoint x="720" y="20" />
              <mxPoint x="240" y="20" />
              <mxPoint x="240" y="120" />
            </Array>
          </mxGeometry>
        </mxCell>
        <mxCell id="Q45M1_1x2DSaUJfvl0xe-7" value="Google Maps API" style="ellipse;shape=cloud;whiteSpace=wrap;html=1;" vertex="1" parent="1">
          <mxGeometry x="625" y="110" width="190" height="100" as="geometry" />
        </mxCell>
        <mxCell id="Q45M1_1x2DSaUJfvl0xe-13" style="edgeStyle=orthogonalEdgeStyle;rounded=0;orthogonalLoop=1;jettySize=auto;html=1;" edge="1" parent="1" source="Q45M1_1x2DSaUJfvl0xe-9" target="Q45M1_1x2DSaUJfvl0xe-12">
          <mxGeometry relative="1" as="geometry">
            <Array as="points">
              <mxPoint x="720" y="500" />
            </Array>
          </mxGeometry>
        </mxCell>
        <mxCell id="Q45M1_1x2DSaUJfvl0xe-9" value="&#xa;&lt;span style=&quot;color: rgb(0, 0, 0); font-family: Helvetica; font-size: 12px; font-style: normal; font-variant-ligatures: normal; font-variant-caps: normal; font-weight: 400; letter-spacing: normal; orphans: 2; text-align: center; text-indent: 0px; text-transform: none; widows: 2; word-spacing: 0px; -webkit-text-stroke-width: 0px; background-color: rgb(251, 251, 251); text-decoration-thickness: initial; text-decoration-style: initial; text-decoration-color: initial; float: none; display: inline !important;&quot;&gt;OpenMateo Historical&lt;/span&gt;&lt;br style=&quot;border-color: var(--border-color); color: rgb(0, 0, 0); font-family: Helvetica; font-size: 12px; font-style: normal; font-variant-ligatures: normal; font-variant-caps: normal; font-weight: 400; letter-spacing: normal; orphans: 2; text-align: center; text-indent: 0px; text-transform: none; widows: 2; word-spacing: 0px; -webkit-text-stroke-width: 0px; background-color: rgb(251, 251, 251); text-decoration-thickness: initial; text-decoration-style: initial; text-decoration-color: initial;&quot;&gt;&lt;span style=&quot;color: rgb(0, 0, 0); font-family: Helvetica; font-size: 12px; font-style: normal; font-variant-ligatures: normal; font-variant-caps: normal; font-weight: 400; letter-spacing: normal; orphans: 2; text-align: center; text-indent: 0px; text-transform: none; widows: 2; word-spacing: 0px; -webkit-text-stroke-width: 0px; background-color: rgb(251, 251, 251); text-decoration-thickness: initial; text-decoration-style: initial; text-decoration-color: initial; float: none; display: inline !important;&quot;&gt;Weather API&lt;/span&gt;&#xa;&#xa;" style="ellipse;shape=cloud;whiteSpace=wrap;html=1;" vertex="1" parent="1">
          <mxGeometry x="625" y="310" width="190" height="100" as="geometry" />
        </mxCell>
        <mxCell id="Q45M1_1x2DSaUJfvl0xe-28" style="edgeStyle=orthogonalEdgeStyle;rounded=0;orthogonalLoop=1;jettySize=auto;html=1;" edge="1" parent="1" source="Q45M1_1x2DSaUJfvl0xe-10" target="Q45M1_1x2DSaUJfvl0xe-23">
          <mxGeometry relative="1" as="geometry">
            <Array as="points">
              <mxPoint x="460" y="210" />
              <mxPoint x="460" y="210" />
            </Array>
          </mxGeometry>
        </mxCell>
        <mxCell id="Q45M1_1x2DSaUJfvl0xe-32" style="edgeStyle=orthogonalEdgeStyle;rounded=0;orthogonalLoop=1;jettySize=auto;html=1;entryX=1;entryY=0.5;entryDx=0;entryDy=0;" edge="1" parent="1" source="Q45M1_1x2DSaUJfvl0xe-10" target="Q45M1_1x2DSaUJfvl0xe-19">
          <mxGeometry relative="1" as="geometry">
            <Array as="points">
              <mxPoint x="290" y="120" />
              <mxPoint x="290" y="315" />
            </Array>
          </mxGeometry>
        </mxCell>
        <mxCell id="Q45M1_1x2DSaUJfvl0xe-10" value="POST Endpoint" style="rounded=0;whiteSpace=wrap;html=1;" vertex="1" parent="1">
          <mxGeometry x="365" y="90" width="120" height="60" as="geometry" />
        </mxCell>
        <mxCell id="Q45M1_1x2DSaUJfvl0xe-26" style="edgeStyle=orthogonalEdgeStyle;rounded=0;orthogonalLoop=1;jettySize=auto;html=1;exitX=0;exitY=0.5;exitDx=0;exitDy=0;" edge="1" parent="1" source="Q45M1_1x2DSaUJfvl0xe-23">
          <mxGeometry relative="1" as="geometry">
            <mxPoint x="415.5" y="240" as="sourcePoint" />
            <mxPoint x="355" y="500" as="targetPoint" />
            <Array as="points">
              <mxPoint x="340" y="270" />
              <mxPoint x="340" y="500" />
            </Array>
          </mxGeometry>
        </mxCell>
        <mxCell id="Q45M1_1x2DSaUJfvl0xe-34" style="edgeStyle=orthogonalEdgeStyle;rounded=0;orthogonalLoop=1;jettySize=auto;html=1;" edge="1" parent="1" source="Q45M1_1x2DSaUJfvl0xe-11" target="Q45M1_1x2DSaUJfvl0xe-23">
          <mxGeometry relative="1" as="geometry">
            <Array as="points">
              <mxPoint x="400" y="340" />
              <mxPoint x="400" y="340" />
            </Array>
          </mxGeometry>
        </mxCell>
        <mxCell id="Q45M1_1x2DSaUJfvl0xe-11" value="Decision Tree Class Handler" style="rounded=0;whiteSpace=wrap;html=1;" vertex="1" parent="1">
          <mxGeometry x="370" y="370" width="120" height="60" as="geometry" />
        </mxCell>
        <mxCell id="Q45M1_1x2DSaUJfvl0xe-12" value="Data Aggregator" style="rounded=0;whiteSpace=wrap;html=1;" vertex="1" parent="1">
          <mxGeometry x="365" y="470" width="120" height="60" as="geometry" />
        </mxCell>
        <mxCell id="Q45M1_1x2DSaUJfvl0xe-20" style="edgeStyle=orthogonalEdgeStyle;rounded=0;orthogonalLoop=1;jettySize=auto;html=1;" edge="1" parent="1" source="Q45M1_1x2DSaUJfvl0xe-15" target="Q45M1_1x2DSaUJfvl0xe-16">
          <mxGeometry relative="1" as="geometry" />
        </mxCell>
        <mxCell id="Q45M1_1x2DSaUJfvl0xe-15" value="Location Selector" style="rounded=0;whiteSpace=wrap;html=1;" vertex="1" parent="1">
          <mxGeometry x="95" y="90" width="120" height="60" as="geometry" />
        </mxCell>
        <mxCell id="Q45M1_1x2DSaUJfvl0xe-21" style="edgeStyle=orthogonalEdgeStyle;rounded=0;orthogonalLoop=1;jettySize=auto;html=1;" edge="1" parent="1" source="Q45M1_1x2DSaUJfvl0xe-16" target="Q45M1_1x2DSaUJfvl0xe-19">
          <mxGeometry relative="1" as="geometry" />
        </mxCell>
        <mxCell id="Q45M1_1x2DSaUJfvl0xe-16" value="Crop Selector" style="rounded=0;whiteSpace=wrap;html=1;" vertex="1" parent="1">
          <mxGeometry x="95" y="190" width="120" height="60" as="geometry" />
        </mxCell>
        <mxCell id="Q45M1_1x2DSaUJfvl0xe-17" value="Crop Calendar" style="rounded=0;whiteSpace=wrap;html=1;" vertex="1" parent="1">
          <mxGeometry x="95" y="430" width="120" height="60" as="geometry" />
        </mxCell>
        <mxCell id="Q45M1_1x2DSaUJfvl0xe-22" style="edgeStyle=orthogonalEdgeStyle;rounded=0;orthogonalLoop=1;jettySize=auto;html=1;" edge="1" parent="1" source="Q45M1_1x2DSaUJfvl0xe-19" target="Q45M1_1x2DSaUJfvl0xe-10">
          <mxGeometry relative="1" as="geometry">
            <Array as="points">
              <mxPoint x="320" y="340" />
              <mxPoint x="320" y="140" />
            </Array>
          </mxGeometry>
        </mxCell>
        <mxCell id="Q45M1_1x2DSaUJfvl0xe-33" style="edgeStyle=orthogonalEdgeStyle;rounded=0;orthogonalLoop=1;jettySize=auto;html=1;" edge="1" parent="1" source="Q45M1_1x2DSaUJfvl0xe-19" target="Q45M1_1x2DSaUJfvl0xe-17">
          <mxGeometry relative="1" as="geometry" />
        </mxCell>
        <mxCell id="Q45M1_1x2DSaUJfvl0xe-19" value="HTTP Fetcher" style="rounded=0;whiteSpace=wrap;html=1;" vertex="1" parent="1">
          <mxGeometry x="95" y="285" width="120" height="60" as="geometry" />
        </mxCell>
        <mxCell id="Q45M1_1x2DSaUJfvl0xe-25" style="edgeStyle=orthogonalEdgeStyle;rounded=0;orthogonalLoop=1;jettySize=auto;html=1;" edge="1" parent="1" source="Q45M1_1x2DSaUJfvl0xe-23" target="Q45M1_1x2DSaUJfvl0xe-11">
          <mxGeometry relative="1" as="geometry">
            <Array as="points">
              <mxPoint x="460" y="340" />
              <mxPoint x="460" y="340" />
            </Array>
          </mxGeometry>
        </mxCell>
        <mxCell id="Q45M1_1x2DSaUJfvl0xe-31" style="edgeStyle=orthogonalEdgeStyle;rounded=0;orthogonalLoop=1;jettySize=auto;html=1;" edge="1" parent="1" source="Q45M1_1x2DSaUJfvl0xe-23" target="Q45M1_1x2DSaUJfvl0xe-10">
          <mxGeometry relative="1" as="geometry">
            <Array as="points">
              <mxPoint x="400" y="210" />
              <mxPoint x="400" y="210" />
            </Array>
          </mxGeometry>
        </mxCell>
        <mxCell id="Q45M1_1x2DSaUJfvl0xe-23" value="HTTP Server" style="rounded=0;whiteSpace=wrap;html=1;" vertex="1" parent="1">
          <mxGeometry x="363" y="240" width="125" height="60" as="geometry" />
        </mxCell>
      </root>
    </mxGraphModel>
  </diagram>
</mxfile>
